<svg width="233" height="268" viewBox="0 0 233 268" fill="none" xmlns="http://www.w3.org/2000/svg">
<path d="M111.701 251.373L111.405 244.664C111.375 244.647 111.343 244.631 111.313 244.615C108.136 242.937 104.494 245.974 105.51 249.437C106.465 252.696 107.105 256.209 108.853 259.063C109.886 260.719 111.276 262.121 112.919 263.164C114.564 264.206 116.419 264.863 118.35 265.086L122.387 267.574C122.94 264.465 122.818 261.275 122.028 258.219C121.239 255.163 119.801 252.316 117.813 249.873C116.683 248.515 115.389 247.304 113.96 246.271C112.994 248.836 111.701 251.373 111.701 251.373Z" fill="#CCCCCC"/>
<path d="M75.5635 183.279C67.7932 175.213 56.5309 170.586 44.6672 170.586L44.21 170.587C36.3955 170.591 28.7194 168.504 21.9692 164.543L21.2668 164.13L21.8326 163.544C24.8959 160.354 27.4538 156.709 29.4162 152.738C28.0215 154.045 26.3592 155.028 24.5458 155.618C22.7325 156.209 20.8124 156.389 18.9217 156.149C16.9255 155.91 15.0091 155.218 13.3163 154.127C11.6233 153.035 10.198 151.573 9.14704 149.848C5.0005 143.076 0.0576172 133.467 0.0576172 126.147C0.0640149 119.961 1.35112 113.842 3.83693 108.184C6.32262 102.526 9.95245 97.45 14.4949 93.2813C17.3708 90.6719 19.6678 87.4811 21.2363 83.9171C22.8048 80.3542 23.6094 76.4983 23.5977 72.6005L23.5954 72.0458C23.5954 66.9142 24.2177 61.8025 25.4508 56.8244L25.5764 56.3209L26.0905 56.3395C29.4045 56.4523 32.7197 56.1732 35.9698 55.5058C32.9221 55.1302 29.9396 54.3313 27.1095 53.1348L26.5558 52.9092L26.7443 52.3394C39.6781 44.2787 68.875 48.4521 85.822 9.42766C99.5643 -22.2175 148.049 37.518 148.049 72.0458C148.049 75.5691 144.584 80.2251 147.178 82.5531C175.212 107.726 155.869 123.891 149.77 140.156C148.323 144.015 151.46 148.252 151.46 152.427C151.46 153.135 151.443 153.867 151.408 154.601L151.353 155.728L150.419 155.103C148.57 153.883 146.855 152.468 145.306 150.882C146.913 154.605 147.672 158.645 147.523 162.702C147.375 166.759 146.325 170.731 144.45 174.327C141.512 179.907 138.67 183.904 136.002 186.201C127.457 193.562 116.44 197.359 105.207 196.816C93.9727 196.272 83.3688 191.43 75.5635 183.279Z" fill="#B3B3B3"/>
<path d="M122.498 267.242C122.689 267.242 122.874 267.173 123.018 267.047C123.163 266.92 123.257 266.746 123.284 266.556C123.317 266.318 126.622 242.331 123.654 210.453C120.913 181.013 112.112 138.608 85.7476 103.783C85.6836 103.699 85.6045 103.628 85.5149 103.576C85.4242 103.522 85.3253 103.489 85.2218 103.475C85.1183 103.46 85.0136 103.467 84.9124 103.493C84.8112 103.52 84.717 103.567 84.6332 103.63C84.5506 103.694 84.4808 103.773 84.4285 103.864C84.3761 103.955 84.3412 104.055 84.3284 104.16C84.3145 104.264 84.3203 104.37 84.3471 104.471C84.3738 104.572 84.4203 104.668 84.4843 104.751C110.621 139.277 119.352 181.37 122.073 210.602C125.024 242.295 121.745 266.093 121.711 266.331C121.696 266.445 121.704 266.56 121.736 266.669C121.768 266.779 121.824 266.881 121.898 266.967C121.973 267.054 122.066 267.122 122.169 267.17C122.273 267.218 122.384 267.242 122.498 267.242Z" fill="#3F3D56"/>
<path d="M100.983 152.906C101.151 152.906 101.314 152.853 101.45 152.754C101.586 152.655 101.687 152.515 101.738 152.354C101.791 152.194 101.791 152.02 101.738 151.86C101.687 151.699 101.586 151.56 101.45 151.461C101.354 151.39 91.7091 144.396 77.2898 139.082C63.9604 134.17 43.6913 129.717 22.824 136.401C22.7245 136.434 22.6322 136.485 22.5524 136.552C22.4725 136.62 22.4066 136.702 22.3586 136.795C22.3107 136.89 22.2813 136.991 22.2725 137.095C22.2637 137.2 22.2753 137.306 22.3071 137.406C22.3387 137.506 22.3896 137.599 22.4569 137.679C22.5242 137.759 22.6067 137.826 22.6994 137.873C22.7921 137.922 22.8934 137.951 22.9974 137.959C23.1014 137.969 23.2061 137.957 23.3056 137.925C43.7448 131.378 63.6475 135.757 76.7442 140.583C90.9576 145.821 100.423 152.684 100.517 152.754C100.652 152.853 100.816 152.906 100.983 152.906Z" fill="#3F3D56"/>
<path d="M137.325 61.8048C137.336 61.6362 137.296 61.4687 137.207 61.3245C137.119 61.1815 136.987 61.0699 136.832 61.0059C136.677 60.9431 136.505 60.9304 136.342 60.9711C136.179 61.0106 136.034 61.1025 135.925 61.2315C135.849 61.3222 128.223 70.5016 121.919 84.5938C116.091 97.621 110.219 117.649 115.34 139.079C115.39 139.285 115.518 139.463 115.698 139.573C115.877 139.684 116.094 139.719 116.298 139.669C116.503 139.619 116.68 139.49 116.789 139.309C116.9 139.128 116.934 138.911 116.885 138.705C111.869 117.715 117.641 98.0501 123.367 85.2497C129.581 71.3586 137.064 62.3513 137.14 62.2618C137.248 62.1327 137.312 61.9734 137.325 61.8048Z" fill="#3F3D56"/>
<path d="M136.25 103.014C136.92 108.454 140.666 112.94 146.112 112.94C148.728 112.94 151.236 111.894 153.085 110.033C154.935 108.171 155.974 105.647 155.974 103.014C155.974 97.5315 151.535 93.5953 146.112 93.0883C140.357 92.5499 135.39 96.0291 136.25 103.014Z" fill="#2F2E41"/>
<path d="M150.679 262.87H154.435L156.221 248.291H150.679V262.87Z" fill="#FFB6B6"/>
<path d="M150.547 266.813H162.096V266.667C162.096 265.467 161.622 264.315 160.779 263.468C159.937 262.619 158.793 262.142 157.601 262.142L155.491 260.532L151.556 262.142H150.547V266.813Z" fill="#2F2E41"/>
<path d="M135.887 262.87H139.642L141.429 248.291H135.886L135.887 262.87Z" fill="#FFB6B6"/>
<path d="M135.754 266.813H147.303V266.667C147.303 265.467 146.83 264.315 145.987 263.468C145.144 262.619 144.001 262.142 142.808 262.142L140.698 260.532L136.763 262.142H135.754V266.813Z" fill="#2F2E41"/>
<path d="M163.603 171.556L166.258 180.718L163.13 219.522C163.13 219.522 164.741 221.949 163.603 221.949C162.464 221.949 161.006 222.486 161.925 223.936C162.845 225.385 159.702 230.587 159.702 230.587L155.258 258.216L149.596 258.133C149.596 258.133 146.717 256.518 148.332 254.886C149.948 253.254 151.086 253.254 149.569 251.727C148.052 250.2 148.052 250.659 148.052 249.475C148.052 248.291 146.532 233.817 150.137 228.264L149.05 205.628L146.492 227.832L141.224 257.452L135.77 257.408C135.77 257.408 133.25 254.963 133.255 253.154C133.259 251.345 134.811 251.194 133.656 250.124C132.5 249.055 132.5 232.615 135.914 223.476C135.914 223.476 137.845 218.37 135.909 216.621C133.974 214.871 135.907 212.87 135.907 212.87C135.907 212.87 138.973 211.753 135.905 208.541C132.836 205.327 135.888 182.6 135.888 182.6C135.888 182.6 132.533 173.426 135.931 169.818C139.328 166.211 163.603 171.556 163.603 171.556Z" fill="#2F2E41"/>
<path d="M116.314 187.341L121.051 175.819L124.783 177.906L122.53 189.627C122.755 190.37 122.771 191.161 122.574 191.912C122.377 192.663 121.976 193.344 121.417 193.878C120.857 194.412 120.16 194.778 119.404 194.937C118.649 195.094 117.864 195.035 117.139 194.769C116.415 194.503 115.778 194.038 115.302 193.427C114.826 192.817 114.527 192.084 114.442 191.313C114.356 190.541 114.485 189.761 114.816 189.059C115.147 188.357 115.666 187.763 116.314 187.341Z" fill="#FFB6B6"/>
<path d="M195.806 96.2256L188.597 106.368L185.432 103.484L190.267 92.5813C190.213 91.8068 190.376 91.0324 190.737 90.3463C191.097 89.6591 191.641 89.0881 192.307 88.6951C192.972 88.3021 193.734 88.1044 194.505 88.123C195.277 88.1428 196.027 88.3777 196.672 88.8021C197.319 89.2265 197.834 89.8254 198.161 90.5277C198.488 91.2313 198.613 92.0126 198.523 92.7848C198.432 93.5557 198.131 94.286 197.651 94.8942C197.17 95.5023 196.532 95.9628 195.806 96.2256Z" fill="#FFB6B6"/>
<path d="M164.319 172.495C168.994 179.794 145.493 189.056 136.476 185.337C134.897 184.686 129.466 182.536 133.178 179.554C136.891 176.572 132.748 176.152 132.65 174.212C132.585 172.914 133.583 170.067 132.54 170.189C131.499 170.311 130.28 168.517 132.549 167.744C134.817 166.972 132.573 166.268 132.593 165.535C132.81 157.534 138.908 144.81 138.908 144.81L127.919 173.082C127.919 173.082 128 177.973 126.6 176.479C125.198 174.984 125.299 179.822 125.299 179.822C125.299 179.822 123.216 181.285 124.414 182.1C125.612 182.914 123.124 185.419 123.124 185.419L117.319 185.001C117.319 185.001 117.409 180.661 118.4 179.701C119.393 178.741 118.905 177.23 118.905 177.23C118.905 177.23 121.486 174.93 119.756 173.064C117.53 170.663 125.644 130.103 128.445 130.506C128.84 128.566 129.762 126.775 131.105 125.33C132.45 123.884 134.164 122.841 136.06 122.316L142.331 120.577L143.445 116.131H152.275L153.812 119.053L160.525 122.102C161.79 120.306 162.734 118.415 167.912 117.801C167.912 117.801 181.863 105.025 181.183 104.027C180.501 103.029 182.664 100.693 182.664 100.693C182.664 100.693 184.511 100.085 183.469 99.7605C182.426 99.435 184.397 98.6849 184.397 98.6849C184.397 98.6849 186.221 98.2023 185.361 97.5663C184.5 96.9314 188.232 96.5139 188.232 96.5139L193.075 100.491L192.096 102.161C192.096 102.161 192.693 104.435 191.914 103.605C191.135 102.775 190.989 105.184 190.989 105.184C190.989 105.184 190.591 107.824 188.232 108.618C185.874 109.413 184.085 116.966 184.085 116.966C178.523 124.245 171.959 129.924 164.18 133.662C167.211 137.164 164.319 172.495 164.319 172.495Z" fill="#49D199"/>
<path d="M147.202 113.53C152.031 113.53 155.947 109.589 155.947 104.727C155.947 99.8664 152.031 95.9255 147.202 95.9255C142.372 95.9255 138.457 99.8664 138.457 104.727C138.457 109.589 142.372 113.53 147.202 113.53Z" fill="#FFB6B6"/>
<path d="M138.146 105.686C138.423 107.599 140.043 110.267 139.664 110.267C139.285 110.267 136.587 102.383 139.285 101.869C141.24 101.495 141.678 101.822 143.506 101.024L143.248 101.269C144.458 102.155 146.142 101.608 147.523 101.033C148.907 100.459 150.588 99.914 151.801 100.795C152.564 101.349 152.886 102.312 153.36 103.128C153.834 103.949 154.71 104.723 155.613 104.472C156.338 104.27 156.755 103.452 156.751 102.697C156.747 101.941 155.769 101.222 156.099 100.543C157.075 98.5338 156.197 97.1639 154.069 96.2185C153.296 96.0999 152.522 95.979 151.748 95.8558C152.154 95.2906 152.646 94.7929 153.205 94.3825C152.968 93.772 152.56 93.2452 152.029 92.8661C151.41 92.4963 150.645 92.5231 149.927 92.5615C148.327 92.6452 146.727 92.7289 145.129 92.8126C143.946 92.8743 142.721 92.9464 141.662 93.4929C140.342 94.1755 139.478 95.5081 138.849 96.8639C137.438 99.9094 137.661 102.361 138.146 105.686Z" fill="#2F2E41"/>
<path d="M101.767 267.805L187.774 267.923C187.894 267.923 188.009 267.875 188.093 267.789C188.177 267.704 188.225 267.589 188.225 267.468C188.225 267.347 188.177 267.232 188.093 267.147C188.009 267.061 187.894 267.013 187.774 267.013L101.767 266.896C101.648 266.896 101.532 266.943 101.449 267.029C101.364 267.114 101.316 267.229 101.316 267.35C101.316 267.471 101.364 267.586 101.449 267.673C101.532 267.757 101.648 267.805 101.767 267.805Z" fill="#CACACA"/>
<path d="M70.6617 228.182C70.8199 227.084 69.6788 226.01 68.112 225.781C66.5463 225.55 65.1469 226.254 64.9887 227.35C64.8305 228.448 65.9716 229.523 67.5385 229.752C69.1042 229.982 70.5024 229.278 70.6617 228.182Z" fill="#E6E6E6"/>
<path d="M89.3117 226.349C89.471 225.253 88.3299 224.178 86.7631 223.948C85.1962 223.719 83.798 224.422 83.6398 225.519C83.4804 226.616 84.6227 227.691 86.1884 227.92C87.7553 228.149 89.1535 227.447 89.3117 226.349Z" fill="#3F3D56"/>
<path d="M65.554 212.984C65.7122 211.887 64.5711 210.813 63.0054 210.582C61.4385 210.353 60.0403 211.057 59.881 212.153C59.7228 213.25 60.8639 214.326 62.4308 214.555C63.9976 214.784 65.3958 214.081 65.554 212.984Z" fill="#FF6584"/>
<path d="M57.4499 206.759C57.458 205.752 56.8996 204.931 56.2029 204.927C55.5073 204.921 54.9373 205.734 54.9291 206.739C54.9222 207.746 55.4805 208.567 56.1761 208.573C56.8717 208.578 57.4429 207.766 57.4499 206.759Z" fill="#E6E6E6"/>
<path d="M54.7023 195.165C54.7093 194.158 54.151 193.337 53.4553 193.331C52.7597 193.326 52.1898 194.138 52.1816 195.145C52.1746 196.152 52.7318 196.973 53.4286 196.977C54.1242 196.983 54.6942 196.17 54.7023 195.165Z" fill="#3F3D56"/>
<path d="M76.073 215.57C76.0812 214.563 75.5228 213.743 74.8272 213.737C74.1305 213.733 73.5605 214.544 73.5535 215.551C73.5454 216.558 74.1037 217.378 74.7993 217.384C75.4949 217.39 76.0661 216.577 76.073 215.57Z" fill="#E6E6E6"/>
<path d="M67.0604 220.099C67.0685 219.092 66.5102 218.272 65.8146 218.266C65.1178 218.262 64.5478 219.073 64.5409 220.08C64.5327 221.087 65.0911 221.907 65.7867 221.913C66.4823 221.919 67.0534 221.106 67.0604 220.099Z" fill="#FF6584"/>
<path d="M79.6069 228.47C79.6139 227.463 79.0567 226.643 78.3599 226.638C77.6643 226.633 77.0943 227.445 77.0862 228.452C77.0792 229.459 77.6376 230.278 78.3332 230.284C79.0288 230.29 79.5987 229.477 79.6069 228.47Z" fill="#3F3D56"/>
<path d="M214.037 169.389C214.195 168.293 213.054 167.217 211.487 166.988C209.92 166.759 208.522 167.461 208.364 168.559C208.206 169.656 209.347 170.73 210.913 170.96C212.479 171.189 213.878 170.486 214.037 169.389Z" fill="#E6E6E6"/>
<path d="M232.687 167.558C232.846 166.461 231.704 165.386 230.138 165.157C228.571 164.928 227.173 165.63 227.015 166.728C226.856 167.824 227.997 168.899 229.564 169.129C231.131 169.358 232.529 168.654 232.687 167.558Z" fill="#3F3D56"/>
<path d="M208.929 154.192C209.088 153.096 207.946 152.02 206.38 151.791C204.814 151.561 203.416 152.264 203.256 153.361C203.098 154.459 204.239 155.533 205.806 155.762C207.373 155.993 208.771 155.289 208.929 154.192Z" fill="#FF6584"/>
<path d="M200.825 147.967C200.833 146.96 200.275 146.14 199.579 146.134C198.884 146.129 198.313 146.941 198.306 147.948C198.297 148.955 198.856 149.776 199.551 149.781C200.248 149.786 200.818 148.974 200.825 147.967Z" fill="#E6E6E6"/>
<path d="M198.078 136.372C198.085 135.365 197.526 134.545 196.831 134.54C196.135 134.535 195.564 135.347 195.557 136.354C195.549 137.361 196.107 138.18 196.803 138.186C197.499 138.191 198.069 137.379 198.078 136.372Z" fill="#3F3D56"/>
<path d="M219.448 156.779C219.456 155.772 218.898 154.951 218.203 154.946C217.506 154.94 216.936 155.752 216.929 156.759C216.921 157.766 217.479 158.587 218.175 158.591C218.87 158.597 219.441 157.786 219.448 156.779Z" fill="#E6E6E6"/>
<path d="M210.436 161.307C210.444 160.3 209.886 159.48 209.19 159.475C208.493 159.469 207.923 160.281 207.915 161.288C207.908 162.295 208.466 163.116 209.162 163.12C209.858 163.126 210.429 162.314 210.436 161.307Z" fill="#FF6584"/>
<path d="M222.982 169.679C222.989 168.672 222.431 167.851 221.735 167.846C221.04 167.841 220.47 168.653 220.461 169.66C220.455 170.666 221.012 171.487 221.708 171.493C222.404 171.498 222.974 170.686 222.982 169.679Z" fill="#3F3D56"/>
<path d="M144.625 60.5862C144.783 59.4897 143.642 58.4141 142.075 58.185C140.509 57.9559 139.11 58.6594 138.952 59.7559C138.794 60.8525 139.935 61.9281 141.502 62.1572C143.068 62.3863 144.466 61.6828 144.625 60.5862Z" fill="white"/>
<path d="M163.275 58.7547C163.435 57.6582 162.293 56.5826 160.727 56.3535C159.16 56.1244 157.761 56.8268 157.603 57.9245C157.444 59.021 158.586 60.0954 160.152 60.3257C161.719 60.5548 163.117 59.8513 163.275 58.7547Z" fill="#3F3D56"/>
<path d="M139.518 45.3891C139.676 44.2926 138.535 43.217 136.969 42.9879C135.402 42.7588 134.004 43.4611 133.845 44.5577C133.687 45.6554 134.828 46.7298 136.394 46.9601C137.961 47.1892 139.36 46.4857 139.518 45.3891Z" fill="#FF6584"/>
<path d="M131.413 39.1646C131.42 38.1576 130.863 37.3366 130.166 37.3308C129.471 37.3262 128.901 38.1378 128.893 39.1448C128.886 40.1518 129.444 40.9728 130.14 40.9775C130.835 40.9833 131.405 40.1704 131.413 39.1646Z" fill="#E6E6E6"/>
<path d="M128.666 27.569C128.673 26.562 128.114 25.7422 127.419 25.7363C126.723 25.7317 126.153 26.5433 126.145 27.5504C126.138 28.5574 126.695 29.3772 127.392 29.383C128.088 29.3888 128.658 28.576 128.666 27.569Z" fill="#3F3D56"/>
<path d="M150.037 47.9754C150.045 46.9684 149.486 46.1474 148.791 46.1427C148.094 46.1369 147.524 46.9498 147.517 47.9556C147.509 48.9626 148.067 49.7836 148.763 49.7894C149.458 49.794 150.03 48.9824 150.037 47.9754Z" fill="#E6E6E6"/>
<path d="M141.024 52.5045C141.032 51.4975 140.474 50.6777 139.778 50.6719C139.081 50.6672 138.511 51.4789 138.504 52.4859C138.496 53.4929 139.055 54.3127 139.75 54.3185C140.446 54.3231 141.017 53.5115 141.024 52.5045Z" fill="#FF6584"/>
<path d="M153.57 60.8757C153.577 59.8687 153.02 59.0489 152.323 59.0431C151.628 59.0385 151.058 59.8501 151.05 60.8571C151.043 61.8641 151.6 62.6839 152.297 62.6897C152.992 62.6944 153.562 61.8828 153.57 60.8757Z" fill="#3F3D56"/>
</svg>
